<?xml version="1.0" standalone="no"?>
<!DOCTYPE svg PUBLIC "-//W3C//DTD SVG 20010904//EN"
 "http://www.w3.org/TR/2001/REC-SVG-20010904/DTD/svg10.dtd">
<svg version="1.0" xmlns="http://www.w3.org/2000/svg"
 width="641.000000pt" height="641.000000pt" viewBox="0 0 641.000000 641.000000"
 preserveAspectRatio="xMidYMid meet">
<metadata>
Created by potrace 1.14, written by Peter Selinger 2001-2017
</metadata>
<g transform="translate(0.000000,641.000000) scale(0.100000,-0.100000)"
fill="#000000" stroke="none">
<path d="M3049 6257 c-81 -40 -209 -102 -285 -139 -396 -190 -470 -226 -594
-285 -74 -36 -189 -91 -255 -123 -66 -32 -187 -90 -270 -130 -82 -40 -204 -98
-270 -130 -66 -32 -185 -89 -265 -128 -80 -38 -220 -106 -313 -150 -122 -59
-167 -86 -168 -99 -1 -21 0 -19 -33 -156 -14 -59 -28 -118 -30 -130 -3 -12
-23 -103 -46 -202 -23 -99 -44 -191 -46 -205 -3 -14 -7 -33 -10 -42 -3 -9 -7
-25 -9 -35 -13 -63 -39 -178 -70 -313 -80 -349 -128 -559 -142 -620 -8 -36
-16 -72 -18 -80 -2 -8 -24 -107 -49 -220 -26 -113 -51 -221 -56 -240 -10 -33
-56 -237 -66 -290 -3 -14 -14 -61 -25 -105 -23 -88 -27 -134 -13 -143 5 -4 27
-29 49 -57 22 -27 45 -57 52 -65 7 -8 132 -166 279 -350 146 -184 276 -346
288 -360 12 -14 35 -43 51 -65 17 -22 38 -49 47 -60 9 -11 146 -182 303 -380
158 -198 294 -369 303 -380 9 -11 42 -52 72 -90 30 -39 57 -72 60 -75 3 -3 30
-36 60 -75 30 -38 59 -75 65 -81 11 -13 47 -58 98 -124 l34 -45 1428 0 1427 0
32 40 c65 84 1487 1868 1514 1900 17 20 208 261 223 280 4 6 -4 57 -17 115
-28 123 -75 330 -79 345 -1 5 -5 21 -8 35 -19 79 -67 290 -72 317 -3 18 -9 42
-14 55 -5 13 -9 25 -9 28 -1 19 -17 97 -34 165 -11 44 -22 91 -25 105 -2 14
-15 72 -28 130 -37 160 -144 626 -149 652 -3 13 -7 32 -10 43 -20 83 -68 295
-72 315 -2 14 -12 54 -20 90 -9 36 -17 70 -18 75 -1 6 -17 79 -36 164 l-35
154 -155 75 c-154 74 -305 147 -555 267 -341 164 -430 207 -555 268 -74 35
-191 92 -260 125 -69 33 -197 94 -285 137 -88 42 -212 102 -275 132 -63 31
-198 96 -299 144 -101 49 -186 89 -190 88 -3 0 -72 -33 -152 -72z m333 -1316
c89 -43 231 -111 313 -151 279 -135 440 -212 540 -260 132 -63 452 -217 490
-237 28 -14 33 -24 48 -97 10 -44 20 -88 22 -96 2 -8 13 -58 25 -110 12 -52
23 -104 26 -115 3 -11 7 -31 10 -45 3 -14 14 -61 24 -105 11 -44 33 -141 49
-215 36 -161 106 -463 132 -575 10 -44 26 -111 34 -150 8 -38 21 -94 29 -123
l14 -54 -137 -171 c-75 -95 -150 -189 -166 -210 -17 -21 -38 -48 -48 -60 -10
-12 -109 -136 -220 -276 -244 -306 -289 -363 -302 -377 -5 -6 -53 -65 -105
-132 l-95 -122 -861 0 -861 0 -24 33 c-13 19 -38 51 -56 73 -18 21 -136 170
-263 329 -128 160 -244 306 -260 325 -15 19 -66 82 -111 140 -46 58 -145 182
-220 277 l-137 172 20 78 c11 43 37 155 58 248 21 94 55 242 75 330 20 88 45
196 55 240 10 44 28 123 40 175 12 52 23 102 25 110 2 8 22 98 46 200 23 102
46 208 52 236 l10 52 176 85 c97 47 237 115 311 150 74 36 221 106 325 156
105 51 253 122 329 159 77 37 196 95 265 129 69 34 133 62 143 62 9 1 90 -34
180 -78z"/>
</g>
</svg>
