<svg data-name="Laag 1" xmlns="http://www.w3.org/2000/svg" viewBox="0 0 634.97 149.81"><path d="M138.45 29.67L76.83 0 15.21 29.67 0 96.35l42.64 53.46h68.38l42.64-53.46zm-41 92H56.19L30.45 89.4l9.18-40.22 37.2-17.95 37.2 17.95 9.18 40.25z" fill="#fb0846"/><path d="M200.13 31.57v35h-9.22v-35h-12.68v-7.12h34.6v7.12zM238.51 49.23V66.6h-9.19V49.23l-14.49-24.78h9.66l9.34 17.73 9.5-17.69h9.66zM276.51 66.6l-12-31.56c.17 1.5.31 2.94.44 4.31.06.59.12 1.19.17 1.82s.1 1.23.14 1.82.07 1.16.09 1.69 0 1 0 1.42v20.5h-8V24.45h10.53l12.28 32.4c-.16-1.39-.31-2.78-.43-4.15-.11-1.19-.21-2.43-.3-3.74s-.14-2.47-.14-3.51v-21h8V66.6zM327.95 54.39a12.23 12.23 0 01-1.07 5.1 10.8 10.8 0 01-3.22 4.08 15.79 15.79 0 01-5.4 2.69 26.7 26.7 0 01-7.63 1q-7.33 0-12-3.09a14 14 0 01-5.93-9l8.9-1.16a8 8 0 003 4.64 10.22 10.22 0 006.25 1.7 18 18 0 003.36-.28 8.14 8.14 0 002.62-.89 4.22 4.22 0 001.62-1.68 5.21 5.21 0 00.57-2.54 3.93 3.93 0 00-1-2.77 7.68 7.68 0 00-2.5-1.78 18.91 18.91 0 00-3.39-1.23c-1.23-.3-2.41-.61-3.56-.92-1-.27-2-.57-3.08-.89a25.21 25.21 0 01-3.14-1.17 19.91 19.91 0 01-2.9-1.61 10.74 10.74 0 01-2.41-2.2 10.36 10.36 0 01-1.64-3 11 11 0 01-.61-3.82 10.13 10.13 0 011.33-5.3 11.24 11.24 0 013.54-3.69 16.28 16.28 0 015.1-2.16 25.54 25.54 0 016-.7q7 0 10.94 2.77t5.13 8.69l-8.94.9a7.59 7.59 0 00-2.47-4.28 7.42 7.42 0 00-4.81-1.44 11.49 11.49 0 00-3.26.39 5.76 5.76 0 00-2.1 1.07 3.66 3.66 0 00-1.12 1.53 4.94 4.94 0 00-.33 1.79 3.9 3.9 0 00.78 2.49 6.27 6.27 0 002.05 1.64 14.61 14.61 0 002.9 1.11l3.33.89c1.1.27 2.24.58 3.41.92a32.54 32.54 0 013.43 1.22 20.49 20.49 0 013.13 1.62 11.68 11.68 0 012.63 2.26 10.32 10.32 0 011.79 3.06 11.18 11.18 0 01.7 4.04zM199.9 90.51v35h-9.22v-35H178v-7.12h34.59v7.12zM239.37 125.55v-17.94h-11.34v17.94h-9.2V83.39h9.22v16.59h11.34V83.39h9.22v42.16zM257.18 125.55V83.39h30.25v7.12h-21v10.13h19.1v7.12H266.4v10.66h22.32v7.13zM319.28 125.55l-9.06-16.1h-5.39v16.1h-9.22V83.39h15.42q8.25 0 12.34 3.22t4.1 9.28a12.57 12.57 0 01-.66 4.19 10.79 10.79 0 01-1.81 3.29 11.28 11.28 0 01-2.75 2.44 13.73 13.73 0 01-3.5 1.58l10.9 18.16zm-1.09-29.29a6 6 0 00-.55-2.68 4.49 4.49 0 00-1.58-1.77 7.18 7.18 0 00-2.55-1 18.76 18.76 0 00-3.45-.29h-5.23v11.75h5.5q4.13 0 6-1.55a5.49 5.49 0 001.86-4.46zM368.12 125.55h-9.18l-2.88-10.32h-14.23l-2.87 10.32h-9.22l13.84-42.16h10.75zm-19.18-36.47c-.05.21-.12.57-.24 1.09s-.25 1.12-.42 1.78l-.55 2.17c-.2.79-.4 1.55-.61 2.3l-3.37 11.88h10.37l-3.37-11.88c-.21-.75-.41-1.51-.61-2.3l-.55-2.17c-.17-.66-.31-1.26-.42-1.78s-.19-.88-.23-1.09zM403.83 96.7a15.36 15.36 0 01-1 5.39 12 12 0 01-2.92 4.46 14.06 14.06 0 01-5 3 21 21 0 01-7.19 1.11h-6.16v14.88h-9.22V83.39h15a26 26 0 017.32.92 14.16 14.16 0 015.12 2.64 10.6 10.6 0 013 4.19 15 15 0 011.05 5.56zm-9.28.16q0-3.41-2.05-4.86t-6.14-1.45h-4.75v13h5q4.13 0 6-1.71a6.36 6.36 0 001.92-4.98zM410.83 125.55V83.39h30.25v7.12h-21v10.13h19.12v7.12h-19.17v10.66h22.31v7.13zM463.65 126.18a20.56 20.56 0 01-6.14-.86 10.69 10.69 0 01-4.62-2.84 13.21 13.21 0 01-2.91-5.27 27.85 27.85 0 01-1-8.15V83.39h9.22v25.56a29.88 29.88 0 00.31 4.71 9.21 9.21 0 001 3.09 4 4 0 001.77 1.69 6.23 6.23 0 002.65.51 6.35 6.35 0 002.72-.54 4.75 4.75 0 001.94-1.77 9.06 9.06 0 001.16-3.19 26.19 26.19 0 00.37-4.81V83.39h9.22v25.19a26.81 26.81 0 01-1.09 8.23 13.7 13.7 0 01-3.14 5.44 11.81 11.81 0 01-4.94 3 21.46 21.46 0 01-6.52.93zM507.15 90.51v35h-9.21v-35h-12.69v-7.12h34.58v7.12zM526.65 83.39h28.63v7.12h-9.72v27.91h9.72v7.13h-28.63v-7.13h9.72V90.51h-9.72zM572.03 104.26q0 7 2.19 10.85a7.06 7.06 0 006.53 3.81 5.83 5.83 0 002.56-.56 7 7 0 002.08-1.58 10.87 10.87 0 001.62-2.42 22.44 22.44 0 001.24-3.06l8.53 1.62a26.56 26.56 0 01-2.42 5.55 16.56 16.56 0 01-3.44 4.15 14.21 14.21 0 01-4.53 2.63 16.9 16.9 0 01-5.74.92 19.3 19.3 0 01-8.15-1.58 14.61 14.61 0 01-5.6-4.45 19.09 19.09 0 01-3.21-6.91 39.69 39.69 0 010-18.18 17.86 17.86 0 013.26-6.75 13.86 13.86 0 015.58-4.12 20.15 20.15 0 017.87-1.41 17.08 17.08 0 015.77.91 13.87 13.87 0 014.41 2.52 15 15 0 013.2 3.84 22.93 22.93 0 012.12 4.89l-8.5 2.06a15.52 15.52 0 00-1-2.78 9.77 9.77 0 00-1.52-2.22 6.44 6.44 0 00-2-1.45 5.47 5.47 0 00-2.36-.52 7 7 0 00-6.38 3.61q-2.11 3.55-2.11 10.63zM634.97 113.33a12.31 12.31 0 01-1.07 5.11 10.82 10.82 0 01-3.21 4.07 15.67 15.67 0 01-5.41 2.69 26.7 26.7 0 01-7.63 1q-7.34 0-12-3.09a14 14 0 01-5.94-9l8.9-1.16a7.93 7.93 0 003 4.64 10.22 10.22 0 006.25 1.7 18 18 0 003.36-.28 7.9 7.9 0 002.55-.9 4.35 4.35 0 001.63-1.67 5.4 5.4 0 00.56-2.55 3.93 3.93 0 00-1-2.77 7.68 7.68 0 00-2.5-1.78 18.14 18.14 0 00-3.36-1.15c-1.23-.31-2.41-.61-3.56-.93-1-.27-2-.56-3.08-.89a25.21 25.21 0 01-3.14-1.17 19 19 0 01-2.9-1.61 10.74 10.74 0 01-2.41-2.2 10.43 10.43 0 01-1.64-3 11.11 11.11 0 01-.61-3.83 10.15 10.15 0 011.33-5.3 11.17 11.17 0 013.55-3.69 16.11 16.11 0 015.09-2.15 25.15 25.15 0 016-.71q7 0 10.94 2.77t5.16 8.6l-8.94.9a7.59 7.59 0 00-2.47-4.28 7.42 7.42 0 00-4.81-1.44 11.45 11.45 0 00-3.26.4 5.75 5.75 0 00-2.1 1.06 3.79 3.79 0 00-1.12 1.53 5 5 0 00-.33 1.8 3.87 3.87 0 00.78 2.48 6.14 6.14 0 002 1.64 14.61 14.61 0 002.9 1.11l3.35.9c1.11.27 2.24.58 3.41.92a36.09 36.09 0 013.44 1.22 20.84 20.84 0 013.18 1.66 11.68 11.68 0 012.63 2.26 10.24 10.24 0 011.79 3.07 11.12 11.12 0 01.69 4.02z"/></svg>