{
  "accessors": [
    {
      "bufferView": 2,
      "componentType": 5126,
      "count": 6770,
      "max": [
        28.997968673706055,
        29.000003814697266,
        250
      ],
      "min": [
        -28.997962951660156,
        -28.999996185302734,
        -250
      ],
      "type": "VEC3"
    },
    {
      "bufferView": 2,
      "byteOffset": 81240,
      "componentType": 5126,
      "count": 6770,
      "max": [
        1,
        0.99157893657684326,
        1
      ],
      "min": [
        -1,
        -0.99157893657684326,
        -1
      ],
      "type": "VEC3"
    },
    {
      "bufferView": 3,
      "componentType": 5126,
      "count": 6770,
      "max": [
        1,
        1,
        0.8933403491973877,
        1
      ],
      "min": [
        -1,
        -1,
        -0.8933403491973877,
        1
      ],
      "type": "VEC4"
    },
    {
      "bufferView": 1,
      "componentType": 5126,
      "count": 6770,
      "max": [
        1.0594291687011719,
        5.5
      ],
      "min": [
        -0.059429526329040527,
        -4.5
      ],
      "type": "VEC2"
    },
    {
      "bufferView": 0,
      "componentType": 5125,
      "count": 22728,
      "max": [
        6769
      ],
      "min": [
        0
      ],
      "type": "SCALAR"
    },
    {
      "bufferView": 2,
      "byteOffset": 162480,
      "componentType": 5126,
      "count": 6770,
      "max": [
        29.947902679443359,
        29.950004577636719,
        250.76847839355469
      ],
      "min": [
        -29.947896957397461,
        -29.949996948242188,
        -250.76847839355469
      ],
      "type": "VEC3"
    },
    {
      "bufferView": 2,
      "byteOffset": 243720,
      "componentType": 5126,
      "count": 6770,
      "max": [
        1,
        0.99157893657684326,
        0.99957334995269775
      ],
      "min": [
        -1,
        -0.99157887697219849,
        -0.99957334995269775
      ],
      "type": "VEC3"
    },
    {
      "bufferView": 3,
      "byteOffset": 108320,
      "componentType": 5126,
      "count": 6770,
      "max": [
        0.99996429681777954,
        0.99997663497924805,
        0.89445585012435913,
        -1
      ],
      "min": [
        -0.99996429681777954,
        -0.99997663497924805,
        -0.89445590972900391,
        -1
      ],
      "type": "VEC4"
    },
    {
      "bufferView": 1,
      "byteOffset": 54160,
      "componentType": 5126,
      "count": 6770,
      "max": [
        1.0594291687011719,
        5.5
      ],
      "min": [
        -0.059429526329040527,
        -4.5
      ],
      "type": "VEC2"
    },
    {
      "bufferView": 0,
      "byteOffset": 90912,
      "componentType": 5125,
      "count": 22728,
      "max": [
        6769
      ],
      "min": [
        0
      ],
      "type": "SCALAR"
    },
    {
      "bufferView": 4,
      "componentType": 5126,
      "count": 101,
      "max": [
        3.3333332538604736
      ],
      "min": [
        0
      ],
      "type": "SCALAR"
    },
    {
      "bufferView": 5,
      "componentType": 5126,
      "count": 101,
      "max": [
        0.48404785990715027,
        0.70710676908493042,
        0.70710676908493042,
        0.70710676908493042
      ],
      "min": [
        -0.70710676908493042,
        -0.5,
        -0.5,
        -0.48404785990715027
      ],
      "type": "VEC4"
    },
    {
      "bufferView": 4,
      "byteOffset": 404,
      "componentType": 5126,
      "count": 101,
      "max": [
        3.3333332538604736
      ],
      "min": [
        0
      ],
      "type": "SCALAR"
    },
    {
      "bufferView": 5,
      "byteOffset": 1616,
      "componentType": 5126,
      "count": 101,
      "max": [
        0.48404785990715027,
        0.70710676908493042,
        0.70710676908493042,
        0.70710676908493042
      ],
      "min": [
        -0.70710676908493042,
        -0.5,
        -0.5,
        -0.48404785990715027
      ],
      "type": "VEC4"
    }
  ],
  "animations": [
    {
      "channels": [
        {
          "sampler": 0,
          "target": {
            "node": 5,
            "path": "rotation"
          }
        },
        {
          "sampler": 1,
          "target": {
            "node": 7,
            "path": "rotation"
          }
        }
      ],
      "name": "Take 001",
      "samplers": [
        {
          "input": 10,
          "interpolation": "LINEAR",
          "output": 11
        },
        {
          "input": 12,
          "interpolation": "LINEAR",
          "output": 13
        }
      ]
    }
  ],
  "asset": {
    "extras": {
      "author": "sucholudek (https://sketchfab.com/sucholudek)",
      "license": "CC-BY-4.0 (http://creativecommons.org/licenses/by/4.0/)",
      "source": "https://sketchfab.com/3d-models/cell-shaded-double-helix-fc666762303f465fa6e82233552de89c",
      "title": "Cell Shaded Double Helix"
    },
    "generator": "Sketchfab-5.22.0",
    "version": "2.0"
  },
  "bufferViews": [
    {
      "buffer": 0,
      "byteLength": 181824,
      "byteOffset": 0,
      "name": "floatBufferViews",
      "target": 34963
    },
    {
      "buffer": 0,
      "byteLength": 108320,
      "byteOffset": 181824,
      "byteStride": 8,
      "name": "floatBufferViews",
      "target": 34962
    },
    {
      "buffer": 0,
      "byteLength": 324960,
      "byteOffset": 290144,
      "byteStride": 12,
      "name": "floatBufferViews",
      "target": 34962
    },
    {
      "buffer": 0,
      "byteLength": 216640,
      "byteOffset": 615104,
      "byteStride": 16,
      "name": "floatBufferViews",
      "target": 34962
    },
    {
      "buffer": 0,
      "byteLength": 808,
      "byteOffset": 831744,
      "name": "floatBufferViews"
    },
    {
      "buffer": 0,
      "byteLength": 3232,
      "byteOffset": 832552,
      "byteStride": 16,
      "name": "floatBufferViews"
    }
  ],
  "buffers": [
    {
      "byteLength": 835784,
      "uri": "scene.bin"
    }
  ],
  "extensionsUsed": [
    "KHR_materials_unlit"
  ],
  "materials": [
    {
      "doubleSided": false,
      "extensions": {
        "KHR_materials_unlit": {}
      },
      "name": "Material_25",
      "pbrMetallicRoughness": {
        "baseColorFactor": [
          1,
          1,
          1,
          1
        ],
        "metallicFactor": 0,
        "roughnessFactor": 1
      }
    },
    {
      "doubleSided": false,
      "extensions": {
        "KHR_materials_unlit": {}
      },
      "name": "Material_26",
      "pbrMetallicRoughness": {
        "baseColorFactor": [
          0,
          0,
          0,
          1
        ],
        "metallicFactor": 0,
        "roughnessFactor": 1
      }
    }
  ],
  "meshes": [
    {
      "name": "helix_Material #25_0",
      "primitives": [
        {
          "attributes": {
            "NORMAL": 1,
            "POSITION": 0,
            "TANGENT": 2,
            "TEXCOORD_0": 3
          },
          "indices": 4,
          "material": 0,
          "mode": 4
        }
      ]
    },
    {
      "name": "helixcell_Material #26_0",
      "primitives": [
        {
          "attributes": {
            "NORMAL": 6,
            "POSITION": 5,
            "TANGENT": 7,
            "TEXCOORD_0": 8
          },
          "indices": 9,
          "material": 1,
          "mode": 4
        }
      ]
    }
  ],
  "nodes": [
    {
      "children": [
        1
      ],
      "name": "RootNode (gltf orientation matrix)",
      "rotation": [
        -0.70710678118654746,
        -0,
        -0,
        0.70710678118654757
      ]
    },
    {
      "children": [
        2
      ],
      "name": "RootNode (model correction matrix)"
    },
    {
      "children": [
        3
      ],
      "matrix": [
        1,
        0,
        0,
        0,
        0,
        0,
        1,
        0,
        0,
        -1,
        0,
        0,
        0,
        0,
        0,
        1
      ],
      "name": "edaae3fa4f7143ad811be9d9f8c9e2dc.fbx"
    },
    {
      "children": [
        4
      ],
      "name": ""
    },
    {
      "children": [
        5,
        7
      ],
      "name": "RootNode"
    },
    {
      "children": [
        6
      ],
      "name": "helix",
      "rotation": [
        -0.7071068286895752,
        -0,
        0,
        0.7071068286895752
      ]
    },
    {
      "mesh": 0,
      "name": "helix_Material #25_0"
    },
    {
      "children": [
        8
      ],
      "name": "helixcell",
      "rotation": [
        -0.7071068286895752,
        -0,
        0,
        0.7071068286895752
      ]
    },
    {
      "mesh": 1,
      "name": "helixcell_Material #26_0"
    }
  ],
  "scene": 0,
  "scenes": [
    {
      "name": "OSG_Scene",
      "nodes": [
        0
      ]
    }
  ]
}

